<svg width="162" height="162" xmlns="http://www.w3.org/2000/svg">
 <!-- Created with SVG Editor - http://github.com/mzalive/SVG Editor/ -->
 <defs>
  <linearGradient y2="0" x2="1" y1="0" x1="0" id="svg_48">
   <stop offset="0" stop-color="#ffffff"/>
   <stop offset="1" stop-color="#000000"/>
  </linearGradient>
 </defs>
 <g>
  <title>background</title>
  <rect fill="url(#svg_48)" id="canvas_background" height="164" width="164" y="-1" x="-1"/>
  <g display="none" overflow="visible" y="0" x="0" height="100%" width="100%" id="canvasGrid">
   <rect fill="url(#gridpattern)" stroke-width="0" y="3" x="3" height="400" width="580"/>
  </g>
 </g>
 <g>
  <title>Layer 1</title>
  <ellipse transform="rotate(18 80.81640625000004,80.99996948242188) " stroke="#000" ry="80.5" rx="80.5" id="svg_23" cy="80.999968" cx="80.816411" stroke-width="0" fill="#fff"/>
  <g stroke="null" id="svg_46">
   <g stroke="null" transform="matrix(0.3770633297176988,0,0,0.3770633297176988,-353.34129864641,-297.3699513051979) " id="svg_29">
    <path stroke="null" id="svg_30" d="m1279.685584,1135.280137l-256.54,0c-21.266,0 -38.561,-17.295 -38.561,-38.561l0,-156.385c0,-21.266 17.295,-38.561 38.561,-38.561l52.347,0l4.582,-15.457c1.87,-8.458 9.602,-14.666 18.696,-14.666l105.297,0c8.837,0 16.658,6.176 18.728,14.743l0.122,0.527l4.177,14.852l52.597,0c21.266,0 38.561,17.295 38.561,38.561l0,156.384c-0.006,21.268 -17.307,38.563 -38.567,38.563zm-256.54,-220.653c-14.178,0 -25.707,11.53 -25.707,25.707l0,156.384c0,14.178 11.53,25.707 25.707,25.707l256.54,0c14.178,0 25.707,-11.53 25.707,-25.707l0,-156.384c0,-14.178 -11.53,-25.707 -25.707,-25.707l-62.327,0l-7.037,-25.097c-0.649,-2.918 -3.278,-5.032 -6.26,-5.032l-105.298,0c-3.027,0 -5.598,2.069 -6.26,5.039l-7.429,25.09l-61.929,0zm128.28,181.802c-44.981,0 -81.576,-36.588 -81.576,-81.563c0,-44.981 36.594,-81.569 81.576,-81.569c44.969,0 81.557,36.594 81.557,81.569c-0.001,44.969 -36.589,81.563 -81.557,81.563zm0,-150.285c-37.893,0 -68.722,30.823 -68.722,68.716s30.83,68.709 68.722,68.709c37.886,0 68.703,-30.823 68.703,-68.709c-0.001,-37.893 -30.824,-68.716 -68.703,-68.716zm119.963,-7.661c-6.555,0 -11.858,5.315 -11.858,11.858c0,6.549 5.302,11.857 11.858,11.857c6.549,0 11.851,-5.309 11.851,-11.857c-0.006,-6.543 -5.309,-11.858 -11.851,-11.858z"/>
   </g>
   <g stroke="null" transform="matrix(0.3770633297176988,0,0,0.3770633297176988,-353.34129864641,-297.3699513051979) " id="svg_31"/>
   <g stroke="null" transform="matrix(0.3770633297176988,0,0,0.3770633297176988,-353.34129864641,-297.3699513051979) " id="svg_32"/>
   <g stroke="null" transform="matrix(0.3770633297176988,0,0,0.3770633297176988,-353.34129864641,-297.3699513051979) " id="svg_33"/>
   <g stroke="null" transform="matrix(0.3770633297176988,0,0,0.3770633297176988,-353.34129864641,-297.3699513051979) " id="svg_34"/>
   <g stroke="null" transform="matrix(0.3770633297176988,0,0,0.3770633297176988,-353.34129864641,-297.3699513051979) " id="svg_35"/>
   <g stroke="null" transform="matrix(0.3770633297176988,0,0,0.3770633297176988,-353.34129864641,-297.3699513051979) " id="svg_36"/>
   <g stroke="null" transform="matrix(0.3770633297176988,0,0,0.3770633297176988,-353.34129864641,-297.3699513051979) " id="svg_37"/>
   <g stroke="null" transform="matrix(0.3770633297176988,0,0,0.3770633297176988,-353.34129864641,-297.3699513051979) " id="svg_38"/>
   <g stroke="null" transform="matrix(0.3770633297176988,0,0,0.3770633297176988,-353.34129864641,-297.3699513051979) " id="svg_39"/>
   <g stroke="null" transform="matrix(0.3770633297176988,0,0,0.3770633297176988,-353.34129864641,-297.3699513051979) " id="svg_40"/>
   <g stroke="null" transform="matrix(0.3770633297176988,0,0,0.3770633297176988,-353.34129864641,-297.3699513051979) " id="svg_41"/>
   <g stroke="null" transform="matrix(0.3770633297176988,0,0,0.3770633297176988,-353.34129864641,-297.3699513051979) " id="svg_42"/>
   <g stroke="null" transform="matrix(0.3770633297176988,0,0,0.3770633297176988,-353.34129864641,-297.3699513051979) " id="svg_43"/>
   <g stroke="null" transform="matrix(0.3770633297176988,0,0,0.3770633297176988,-353.34129864641,-297.3699513051979) " id="svg_44"/>
   <g stroke="null" transform="matrix(0.3770633297176988,0,0,0.3770633297176988,-353.34129864641,-297.3699513051979) " id="svg_45"/>
  </g>
 </g>
</svg>