<svg width="37.434" height="37.434" xmlns="http://www.w3.org/2000/svg">

 <g>
  <title>background</title>
  <rect fill="none" id="canvas_background" height="402" width="582" y="-1" x="-1"/>
 </g>
 <g>
  <title>Layer 1</title>
  <g id="svg_1">
   <path fill="#ffffff" id="svg_2" d="m32.932,8.578l-5.412,0l0,-0.556c0,-2.484 -2.016,-4.5 -4.5,-4.5l-8.607,0c-2.485,0 -4.5,2.016 -4.5,4.5l0,0.556l-5.413,0c-2.485,0 -4.5,2.015 -4.5,4.5l0,16.334c0,2.484 2.015,4.5 4.5,4.5l28.434,0c2.485,0 4.5,-2.016 4.5,-4.5l0,-16.334c-0.002,-2.486 -2.017,-4.5 -4.502,-4.5zm-14.217,20.666c-4.688,0 -8.5,-3.812 -8.5,-8.5c0,-4.687 3.812,-8.5 8.5,-8.5c4.688,0 8.5,3.812 8.5,8.5c0,4.688 -3.813,8.5 -8.5,8.5zm4.5,-8.5c0,2.479 -2.02,4.5 -4.5,4.5c-2.48,0 -4.5,-2.021 -4.5,-4.5c0,-2.48 2.02,-4.5 4.5,-4.5c2.48,0 4.5,2.02 4.5,4.5z"/>
  </g>
  <g id="svg_3"/>
  <g id="svg_4"/>
  <g id="svg_5"/>
  <g id="svg_6"/>
  <g id="svg_7"/>
  <g id="svg_8"/>
  <g id="svg_9"/>
  <g id="svg_10"/>
  <g id="svg_11"/>
  <g id="svg_12"/>
  <g id="svg_13"/>
  <g id="svg_14"/>
  <g id="svg_15"/>
  <g id="svg_16"/>
  <g id="svg_17"/>
 </g>
</svg>