<svg width="91.965" height="91.965" xmlns="http://www.w3.org/2000/svg">

 <g>
  <title>background</title>
  <rect fill="none" id="canvas_background" height="602" width="802" y="-1" x="-1"/>
 </g>
 <g>
  <title>Layer 1</title>
  <g id="svg_1">
   <path fill="#2b7bff" id="svg_2" d="m89.779,31.962l-40.722,40.726c-2.326,2.322 -6.108,2.322 -8.437,0c-1.161,-1.164 -1.741,-2.691 -1.741,-4.219s0.58,-3.052 1.741,-4.216l43.684,-43.679c-8.238,-12.399 -22.322,-20.574 -38.321,-20.574c-25.395,0 -45.979,20.588 -45.979,45.98c0,4.891 0.77,9.6 2.186,14.021l40.723,-40.725c2.324,-2.326 6.106,-2.326 8.431,0c1.162,1.162 1.742,2.689 1.742,4.216c0,1.528 -0.58,3.056 -1.742,4.218l-43.678,43.681c8.235,12.397 22.32,20.574 38.317,20.574c25.394,0 45.978,-20.589 45.978,-45.982c0,-4.891 -0.77,-9.598 -2.182,-14.021zm-66.284,42.47c-1.592,0 -3.089,-0.617 -4.215,-1.744c-2.323,-2.324 -2.323,-6.109 0,-8.434l44.976,-44.977c2.326,-2.326 6.109,-2.326 8.434,0c1.127,1.125 1.75,2.625 1.75,4.218c0,1.591 -0.623,3.087 -1.75,4.216l-44.977,44.977c-1.127,1.124 -2.625,1.744 -4.218,1.744z"/>
  </g>
  <g id="svg_3"/>
  <g id="svg_4"/>
  <g id="svg_5"/>
  <g id="svg_6"/>
  <g id="svg_7"/>
  <g id="svg_8"/>
  <g id="svg_9"/>
  <g id="svg_10"/>
  <g id="svg_11"/>
  <g id="svg_12"/>
  <g id="svg_13"/>
  <g id="svg_14"/>
  <g id="svg_15"/>
  <g id="svg_16"/>
  <g id="svg_17"/>
 </g>
</svg>